[Header]
FileType HTR
DataType HTRS
FileVersion 1
NumSegments 48
NumFrames 3
DataFrameRate 30
EulerRotationOrder ZYX
CalibrationUnits mm
RotationUnits Degrees
GlobalAxisofGravity Y
BoneLengthAxis Y
ScaleFactor 1.0
[SegmentNames&Hierarchy]
Wolf	GLOBAL
Becken	Wolf
Bauch	Becken
Bauch_001	Bauch
Brust	Bauch_001
Hals	Brust
Kopf_002	Hals
Kopf	Kopf_002
Unterkiefer	Kopf
Hals_fett	Unterkiefer
Maulunten	Unterkiefer
Mauloben	Kopf
MundW_L	Kopf
MundW_R	Kopf
Augen_con	Kopf
IK_Aug_R	Augen_con
IK_Aug_L	Augen_con
Aug_R	Kopf
aug_L	Kopf
Ohr_L	Kopf
Ohr_R	Kopf
Braun_O_L	Kopf
Braun_O_R	Kopf
aug_lied_O_L	Kopf
aug_lied_O_R	Kopf
aug_lied_U_L	Kopf
aug_lied_U_R	Kopf
Bauch_003	Brust
Schalterplatte_L	Bauch_003
Oberarm_L	Schalterplatte_L
Unterarm_L	Oberarm_L
Vorderpfote_L	Unterarm_L
Schalterplatte_R	Bauch_003
Oberarm_R	Schalterplatte_R
Unterarm_R	Oberarm_R
Vorderpfote_R	Unterarm_R
Schwanz	Becken
Schwanz_001	Schwanz
Schwanz_002	Schwanz_001
Schwanz_003	Schwanz_002
Oberschenkel_L	Becken
Unterschenkel_L	Oberschenkel_L
Pfote1_L	Unterschenkel_L
Pfote2_L	Pfote1_L
Oberschenkel_R	Becken
Unterschenkel_R	Oberschenkel_R
Pfote1_R	Unterschenkel_R
Pfote2_R	Pfote1_R
[BasePosition]
Wolf	0	0	0	0	0	0	1
Becken	0	0	0	0	0	0	1
Bauch	0	0	0	0	0	0	1
Bauch_001	0	0	0	0	0	0	1
Brust	0	0	0	0	0	0	1
Hals	0	0	0	0	0	0	1
Kopf_002	0	0	0	0	0	0	1
Kopf	0	0	0	0	0	0	1
Unterkiefer	0	0	0	0	0	0	1
Hals_fett	0	0	0	0	0	0	1
Maulunten	0	0	0	0	0	0	1
Mauloben	0	0	0	0	0	0	1
MundW_L	0	0	0	0	0	0	1
MundW_R	0	0	0	0	0	0	1
Augen_con	0	0	0	0	0	0	1
IK_Aug_R	0	0	0	0	0	0	1
IK_Aug_L	0	0	0	0	0	0	1
Aug_R	0	0	0	0	0	0	1
aug_L	0	0	0	0	0	0	1
Ohr_L	0	0	0	0	0	0	1
Ohr_R	0	0	0	0	0	0	1
Braun_O_L	0	0	0	0	0	0	1
Braun_O_R	0	0	0	0	0	0	1
aug_lied_O_L	0	0	0	0	0	0	1
aug_lied_O_R	0	0	0	0	0	0	1
aug_lied_U_L	0	0	0	0	0	0	1
aug_lied_U_R	0	0	0	0	0	0	1
Bauch_003	0	0	0	0	0	0	1
Schalterplatte_L	0	0	0	0	0	0	1
Oberarm_L	0	0	0	0	0	0	1
Unterarm_L	0	0	0	0	0	0	1
Vorderpfote_L	0	0	0	0	0	0	1
Schalterplatte_R	0	0	0	0	0	0	1
Oberarm_R	0	0	0	0	0	0	1
Unterarm_R	0	0	0	0	0	0	1
Vorderpfote_R	0	0	0	0	0	0	1
Schwanz	0	0	0	0	0	0	1
Schwanz_001	0	0	0	0	0	0	1
Schwanz_002	0	0	0	0	0	0	1
Schwanz_003	0	0	0	0	0	0	1
Oberschenkel_L	0	0	0	0	0	0	1
Unterschenkel_L	0	0	0	0	0	0	1
Pfote1_L	0	0	0	0	0	0	1
Pfote2_L	0	0	0	0	0	0	1
Oberschenkel_R	0	0	0	0	0	0	1
Unterschenkel_R	0	0	0	0	0	0	1
Pfote1_R	0	0	0	0	0	0	1
Pfote2_R	0	0	0	0	0	0	1
[Wolf]
43	0	0	0	-90	-0	0	1.0
44	0	0	0	-90	-0	0	1.0
45	0	0	0	-90	-0	0	1.0
[Becken]
43	0	0.3470519781	-0.2813748717	-2.067962885	164.4212189	89.26520538	1.0
44	0	0.3570380211	-0.2997148335	-2.067962885	164.4212189	89.26520538	1.0
45	0	0.3670240045	-0.3175157905	-2.067962885	164.4212189	89.26520538	1.0
[Bauch]
43	0.9984878302	-0.00741992658	-0.150611341	-6.458931239e-07	12.60522842	-8.201818247e-08	1.0
44	0.9984878302	-0.00741992658	-0.150611341	-6.458931239e-07	12.60522842	-8.201818247e-08	1.0
45	0.9984878302	-0.00741992658	-0.150611341	-6.458931239e-07	12.60522842	-8.201818247e-08	1.0
[Bauch_001]
43	1.071342349	0.006600080058	-0.1893585622	-1.568805601e-07	2.360082865	-2.503413654e-08	1.0
44	1.071342349	0.006600080058	-0.1893585622	-1.568805601e-07	2.360082865	-2.503413654e-08	1.0
45	1.071342349	0.006600080058	-0.1893585622	-1.568805601e-07	2.360082865	-2.503413654e-08	1.0
[Brust]
43	1.41907382	-0.01381989196	0.3623858392	3.618613846e-06	10.7627573	-4.096809789e-05	1.0
44	1.41907382	-0.01381989196	0.3623858392	3.618613846e-06	10.7627573	-4.096809789e-05	1.0
45	1.41907382	-0.01381989196	0.3623858392	3.618613846e-06	10.7627573	-4.096809789e-05	1.0
[Hals]
43	1.1844244	-0.01484991144	1.02827692	-4.51789947e-06	46.87745285	-2.16624926e-06	1.0
44	1.1844244	-0.01484991144	1.02827692	-4.51789947e-06	46.87745285	-2.16624926e-06	1.0
45	1.1844244	-0.01484991144	1.02827692	-4.51789947e-06	46.87745285	-2.16624926e-06	1.0
[Kopf_002]
43	1.75259161	3.012944944e-05	0.2651725411	0.006653842982	-165.1497192	0.002556535648	1.0
44	1.75259161	3.012944944e-05	0.2651725411	0.006653842982	-165.1497192	0.002556535648	1.0
45	1.75259161	3.012944944e-05	0.2651725411	0.006653842982	-165.1497192	0.002556535648	1.0
[Kopf]
43	1.015781879	8.032657206e-08	9.111317922e-08	0.06872025877	123.2280426	-0.02605217695	1.0
44	1.015781879	8.032657206e-08	9.111317922e-08	0.06872025877	123.2280426	-0.02605217695	1.0
45	1.015781879	8.032657206e-08	9.111317922e-08	0.06872025877	123.2280426	-0.02605217695	1.0
[Unterkiefer]
43	0.6370437145	0.004552738741	0.4060620368	5.412721157	-68.3888092	-3.09354353	1.0
44	0.6370437145	0.004552738741	0.4060620368	5.412721157	-68.3888092	-3.09354353	1.0
45	0.6370437145	0.004552738741	0.4060620368	5.412721157	-68.3888092	-3.09354353	1.0
[Hals_fett]
43	0.2998299599	0.007747137919	0.1206380203	-5.071650982	-59.35961533	5.585566998	1.0
44	0.2998299599	0.007747137919	0.1206380203	-5.071650982	-59.35961533	5.585566998	1.0
45	0.2998299599	0.007747137919	0.1206380203	-5.071650982	-59.35961533	5.585566998	1.0
[Maulunten]
43	0.08317943662	-0.007747350261	-0.1206459776	-3.32220912	38.97271347	-0.871876061	1.0
44	0.08317943662	-0.007747350261	-0.1206459776	-3.32220912	38.97271347	-0.871876061	1.0
45	0.08317943662	-0.007747350261	-0.1206459776	-3.32220912	38.97271347	-0.871876061	1.0
[Mauloben]
43	0.910148263	0.0004056794569	0.4003701806	-0.1032674983	-28.77768707	0.03543139994	1.0
44	0.910148263	0.0004056794569	0.4003701806	-0.1032674983	-28.77768707	0.03543139994	1.0
45	0.910148263	0.0004056794569	0.4003701806	-0.1032674983	-28.77768707	0.03543139994	1.0
[MundW_L]
43	0.673060894	-0.3618556261	0.3751286268	-179.8370972	-17.94884872	24.71397209	1.0
44	0.673060894	-0.3618556261	0.3751286268	-179.8370972	-17.94884872	24.71397209	1.0
45	0.673060894	-0.3618556261	0.3751286268	-179.8370972	-17.94884872	24.71397209	1.0
[MundW_R]
43	0.6732318401	0.3627035022	0.37398085	179.6653442	-18.02427101	-24.69083977	1.0
44	0.6732318401	0.3627035022	0.37398085	179.6653442	-18.02427101	-24.69083977	1.0
45	0.6732318401	0.3627035022	0.37398085	179.6653442	-18.02427101	-24.69083977	1.0
[Augen_con]
43	1.807372689	-0.0001604028512	0.1835819334	0.09822253883	157.1545258	0.02385936864	1.0
44	1.807372689	-0.0001604028512	0.1835819334	0.09822253883	157.1545258	0.02385936864	1.0
45	1.807372689	-0.0001604028512	0.1835819334	0.09822253883	157.1545258	0.02385936864	1.0
[IK_Aug_R]
43	0.3461304307	0.2943200469	-8.032657206e-08	-0.4194762409	-4.963055134	165.6946411	1.0
44	0.3461304307	0.2943200469	-8.032657206e-08	-0.4194762409	-4.963055134	165.6946411	1.0
45	0.3461304307	0.2943200469	-8.032657206e-08	-0.4194762409	-4.963055134	165.6946411	1.0
[IK_Aug_L]
43	0.3461307883	-0.2943199575	-1.629814861e-08	0.4194769561	-4.963055134	-165.6946411	1.0
44	0.3461307883	-0.2943199575	-1.629814861e-08	0.4194769561	-4.963055134	-165.6946411	1.0
45	0.3461307883	-0.2943199575	-1.629814861e-08	0.4194769561	-4.963055134	-165.6946411	1.0
[Aug_R]
43	1.0351547	0.2207805812	-0.09605748951	176.004776	-17.29163933	12.85548019	1.0
44	1.0351547	0.2207805812	-0.09605748951	176.004776	-17.29163933	12.85548019	1.0
45	1.0351547	0.2207805812	-0.09605748951	176.004776	-17.29163933	12.85548019	1.0
[aug_L]
43	1.035044074	-0.2215988934	-0.09535883367	-176.1891022	-17.33178139	-12.83103275	1.0
44	1.035044074	-0.2215988934	-0.09535883367	-176.1891022	-17.33178139	-12.83103275	1.0
45	1.035044074	-0.2215988934	-0.09535883367	-176.1891022	-17.33178139	-12.83103275	1.0
[Ohr_L]
43	0.6407760978	-0.3659991622	-0.6893320084	-24.34924507	53.07766342	-15.02013397	1.0
44	0.6407760978	-0.3659991622	-0.6893320084	-24.34924507	53.07766342	-15.02013397	1.0
45	0.6407760978	-0.3659991622	-0.6893320084	-24.34924507	53.07766342	-15.02013397	1.0
[Ohr_R]
43	0.6409583092	0.3634999394	-0.6904845238	24.05786133	53.12416077	14.75857162	1.0
44	0.6409583092	0.3634999394	-0.6904845238	24.05786133	53.12416077	14.75857162	1.0
45	0.6409583092	0.3634999394	-0.6904845238	24.05786133	53.12416077	14.75857162	1.0
[Braun_O_L]
43	0.9801794291	-0.3706048727	-0.3292538524	-143.3172302	-34.69635391	52.39493942	1.0
44	0.9801794291	-0.3706048727	-0.3292538524	-143.3172302	-34.69635391	52.39493942	1.0
45	0.9801794291	-0.3706048727	-0.3292538524	-143.3172302	-34.69635391	52.39493942	1.0
[Braun_O_R]
43	0.9803634882	0.3690741956	-0.3304223716	143.1826782	-34.83971786	-52.3467598	1.0
44	0.9803634882	0.3690741956	-0.3304223716	143.1826782	-34.83971786	-52.3467598	1.0
45	0.9803634882	0.3690741956	-0.3304223716	143.1826782	-34.83971786	-52.3467598	1.0
[aug_lied_O_L]
43	1.038881421	-0.3271433711	-0.1608108282	-175.8613434	-20.15596199	60.31666946	1.0
44	1.038881421	-0.3271433711	-0.1608108282	-175.8613434	-20.15596199	60.31666946	1.0
45	1.038881421	-0.3271433711	-0.1608108282	-175.8613434	-20.15596199	60.31666946	1.0
[aug_lied_O_R]
43	1.039044261	0.3261157274	-0.1618429124	175.7657928	-20.31323814	-60.31218338	1.0
44	1.039044261	0.3261157274	-0.1618429124	175.7657928	-20.31323814	-60.31218338	1.0
45	1.039044261	0.3261157274	-0.1618429124	175.7657928	-20.31323814	-60.31218338	1.0
[aug_lied_U_L]
43	1.021915555	-0.3312865496	-0.1338484734	-159.8099365	-28.7482872	60.17461395	1.0
44	1.021915555	-0.3312865496	-0.1338484734	-159.8099365	-28.7482872	60.17461395	1.0
45	1.021915555	-0.3312865496	-0.1338484734	-159.8099365	-28.7482872	60.17461395	1.0
[aug_lied_U_R]
43	1.02207756	0.3303526342	-0.1348843277	159.7071381	-28.90532684	-60.15359116	1.0
44	1.02207756	0.3303526342	-0.1348843277	159.7071381	-28.90532684	-60.15359116	1.0
45	1.02207756	0.3303526342	-0.1348843277	159.7071381	-28.90532684	-60.15359116	1.0
[Bauch_003]
43	1.444672227	0.03385011479	-1.56629622	-3.870021374e-06	-137.6799469	1.039222207e-05	1.0
44	1.444672227	0.03385011479	-1.56629622	-3.870021374e-06	-137.6799469	1.039222207e-05	1.0
45	1.444672227	0.03385011479	-1.56629622	-3.870021374e-06	-137.6799469	1.039222207e-05	1.0
[Schalterplatte_L]
43	0.9307767153	-0.381126821	-0.0555979386	-107.4749908	64.95700073	-139.8554993	1.0
44	0.939360857	-0.3808220923	-0.06526715308	-107.026062	65.76413727	-138.9236755	1.0
45	0.9479448795	-0.3805173635	-0.07493636757	-104.2625198	67.92115784	-135.488205	1.0
[Oberarm_L]
43	1.418636918	9.313225746e-08	1.303851604e-07	-116.4081802	-60.3783989	141.2620239	1.0
44	1.418636918	9.313225746e-08	1.303851604e-07	-112.6369705	-61.75574875	136.5317688	1.0
45	1.418636918	9.313225746e-08	1.303851604e-07	-107.1505661	-63.23538589	129.692337	1.0
[Unterarm_L]
43	2.028227806	1.885928214e-07	1.862644972e-08	74.84107208	79.64213562	79.47982025	1.0
44	2.028227806	1.885928214e-07	1.862644972e-08	74.36504364	80.25015259	78.45842743	1.0
45	2.028227806	1.885928214e-07	1.862644972e-08	70.39252472	81.11992645	73.38846588	1.0
[Vorderpfote_L]
43	1.705947399	2.607703209e-07	2.305023372e-07	-34.06167603	-11.14697266	1.615157485	1.0
44	1.705947399	2.607703209e-07	2.305023372e-07	-32.89740372	-7.579969883	0.6510944366	1.0
45	1.705947399	2.607703209e-07	2.305023372e-07	-29.57479477	2.154750109	-1.747683167	1.0
[Schalterplatte_R]
43	0.9664035439	0.3929800093	0.08585451543	10.09367657	72.30397034	39.55209732	1.0
44	0.9922510386	0.3951711655	0.1035165638	9.711452484	72.16882324	39.26693726	1.0
45	1.019828439	0.397362262	0.1211785972	9.418962479	72.07596588	39.07415771	1.0
[Oberarm_R]
43	1.418636441	2.235174179e-07	1.490116119e-07	83.76912689	-60.84041214	-100.4251175	1.0
44	1.418636441	2.235174179e-07	1.490116119e-07	85.38491058	-60.8157196	-102.3322754	1.0
45	1.418636441	2.235174179e-07	1.490116119e-07	86.98202515	-60.76512527	-104.2250137	1.0
[Unterarm_R]
43	2.028232098	1.350417733e-07	-7.450580597e-08	-4.909868717	57.07765579	-5.224096298	1.0
44	2.028232098	1.350417733e-07	-7.450580597e-08	-5.095654011	57.40159988	-5.418936729	1.0
45	2.028232098	1.350417733e-07	-7.450580597e-08	-5.299396515	57.77293015	-5.632998943	1.0
[Vorderpfote_R]
43	1.705937624	9.313230187e-09	7.101335342e-08	0.07913061976	94.09637451	-0.2570479512	1.0
44	1.705937624	9.313230187e-09	7.101335342e-08	0.3667201102	94.4424057	0.03259487078	1.0
45	1.705937624	9.313230187e-09	7.101335342e-08	0.6290109158	94.80675507	0.2968845963	1.0
[Schwanz]
43	-0.125014022	-1.338776023e-08	0.07931206375	0.1032983214	-123.2382889	-0.3007694185	1.0
44	-0.1352849901	-1.338776023e-08	0.08506806195	0.128820613	-123.8900146	-0.3850003779	1.0
45	-0.1455559582	-1.338776023e-08	0.09082406014	0.151749298	-124.5226288	-0.4650917649	1.0
[Schwanz_001]
43	0.9104326963	6.926712359e-08	1.564329999e-09	-0.6059590578	-9.860569	0.5547189116	1.0
44	0.9104326963	6.926712359e-08	1.564329999e-09	-0.5874633789	-10.61352921	0.5324895978	1.0
45	0.9104326963	6.926712359e-08	1.564329999e-09	-0.5692121387	-11.34439373	0.5106499195	1.0
[Schwanz_002]
43	0.7855662704	6.053597446e-08	1.369335223e-07	-0.2611623108	-13.85606289	0.2008508295	1.0
44	0.7855662704	6.053597446e-08	1.369335223e-07	-0.2178106308	-13.50528812	0.1672367901	1.0
45	0.7855662704	6.053597446e-08	1.369335223e-07	-0.1723417193	-13.13515568	0.1320879906	1.0
[Schwanz_003]
43	0.8350353241	6.286426668e-08	8.163624443e-08	-0.01392684598	-5.37184	0.1067615002	1.0
44	0.8350353241	6.286426668e-08	8.163624443e-08	-0.1755405366	-10.53444767	0.2680856884	1.0
45	0.8350353241	6.286426668e-08	8.163624443e-08	-0.347838223	-15.53956032	0.4401212633	1.0
[Oberschenkel_L]
43	0.6194098592	-0.5837000012	0.09732768685	18.7133503	-68.52810669	-13.63203239	1.0
44	0.5839874148	-0.5837000012	0.1027729064	19.1178112	-69.13644409	-14.06574345	1.0
45	0.5496051311	-0.5837000012	0.10796009	19.56411171	-69.76610565	-14.54231834	1.0
[Unterschenkel_L]
43	1.686438918	1.111273846e-07	4.011848631e-09	-82.39689636	-77.74858093	90.26532745	1.0
44	1.686438918	1.107035104e-07	4.107368667e-09	-82.04979706	-77.76835632	89.82843781	1.0
45	1.686438918	1.102796361e-07	4.202889148e-09	-80.90213013	-77.76822662	88.57393646	1.0
[Pfote1_L]
43	1.190900326	1.544562735e-07	-1.051319884e-07	0.2689210474	53.57676697	-8.775837898	1.0
44	1.190900326	1.550293973e-07	-1.03699179e-07	0.8150871396	49.72160339	-8.081261635	1.0
45	1.190900326	1.556025211e-07	-1.022663838e-07	1.267328739	45.79852676	-7.474672794	1.0
[Pfote2_L]
43	0.9876254797	9.807543222e-08	-4.355724315e-08	22.00218391	105.5549469	16.50613213	1.0
44	0.9876254797	9.630830533e-08	-4.193339365e-08	22.89637184	105.1847458	17.37358093	1.0
45	0.9876254797	9.454118555e-08	-4.030955125e-08	24.2807579	104.4785614	18.7587986	1.0
[Oberschenkel_R]
43	0.6114566922	0.5837000608	-0.03254853934	-10.33763409	-28.19605446	3.123762131	1.0
44	0.6339433193	0.5837000608	-0.01479904912	-10.29942513	-27.49430084	3.042344093	1.0
45	0.6564298868	0.5837000608	0.004223294556	-10.27730656	-27.07552147	2.994282484	1.0
[Unterschenkel_R]
43	1.686449051	1.11758709e-07	3.725289943e-08	-38.99931717	-120.2726593	20.58995628	1.0
44	1.686449051	1.11758709e-07	3.725289943e-08	-39.66035843	-119.2438049	21.68314934	1.0
45	1.686449051	1.11758709e-07	3.725289943e-08	-40.64819717	-118.0048828	23.17190552	1.0
[Pfote1_R]
43	1.190900326	2.176966518e-07	1.11758709e-07	-3.583039999	52.00208282	4.00616169	1.0
44	1.190900326	2.176966518e-07	1.11758709e-07	-3.745548725	53.35251999	3.801898956	1.0
45	1.190900326	2.176966518e-07	1.11758709e-07	-3.919342041	54.69307709	3.586949587	1.0
[Pfote2_R]
43	0.9876256585	1.024454832e-07	-4.656610209e-09	-61.23192215	103.6542206	-48.60836411	1.0
44	0.9876256585	1.024454832e-07	-4.656610209e-09	-64.46868896	102.8201065	-51.9703598	1.0
45	0.9876256585	1.024454832e-07	-4.656610209e-09	-68.06102753	101.9504013	-55.71362305	1.0
[EndOfFile]
